<?xml version="1.0" encoding="utf-8"?>
<!-- Generator: Adobe Illustrator 27.7.0, SVG Export Plug-In . SVG Version: 6.00 Build 0)  -->
<svg version="1.1" id="Layer_1" xmlns="http://www.w3.org/2000/svg" xmlns:xlink="http://www.w3.org/1999/xlink" x="0px" y="0px"
	 viewBox="0 0 700 564.2" style="enable-background:new 0 0 700 564.2;" xml:space="preserve">
<style type="text/css">
	.st0{fill:#FFFFFF;}
</style>
<g id="Components">
	<g id="_3b9c0eaf-7483-41f1-97ee-2fbbb617e1df_5">
		<g id="Artwork_4">
			<path class="st0" d="M330.5,423.8l-8.2-23.3l6.9-12c1.3-2.2,2.1-3.3,2.9-3.7l0-0.1c-0.4,0.1-2.2,0.2-4.3,0.2H326
				c-2.2,0-3.4,0-3.6-0.1l-0.1,0.1c0.5,0.8,0.4,1.6-0.6,3.6l-7.5,14.6v-13.1c0-2.4,0.3-3.9,1-5l-0.1-0.1c-0.4,0.1-2.1,0.1-4,0.1
				h-1.2c-1.9,0-3.6,0-4-0.1l-0.1,0.1c0.7,1,1,2.5,1,5v33.7c0,2.4-0.3,3.9-1,5l0.1,0.1c0.4-0.1,2.1-0.1,4-0.1h1.2c1.9,0,3.6,0,4,0.1
				l0.1-0.1c-0.7-1-1-2.5-1-5v-9.1l3.2-5.6l6.7,19.6h5.4c2.2,0,3.1,0.1,3.4,0.2l0.1-0.1C332.3,427.8,331.5,426.4,330.5,423.8
				L330.5,423.8z"/>
			<path class="st0" d="M284.5,384.3c-8.5,0-13.1,8-13.1,22.3s4.7,22.3,13.1,22.3c8.5,0,13.1-8,13.1-22.3S292.9,384.3,284.5,384.3z
				 M284.5,421.2c-3.6,0-5.5-5.2-5.5-14.6c0-9.4,2-14.6,5.5-14.6c3.6,0,5.6,5.2,5.6,14.6C290.1,416,288.1,421.2,284.5,421.2z"/>
			<path class="st0" d="M262.9,384.8L262.9,384.8c-0.5,0-1.9,0.1-3.8,0.1h-4.5c-2,0-3.4-0.1-4.2-0.2l-0.1,0.1c0.3,1,0.1,2.6-0.4,4.3
				l-5.1,15.5l-4.9-15.5c-0.5-1.7-0.7-3-0.4-4.3l-0.1,0c-0.3,0.2-2.5,0.2-4.5,0.2h-4.4c-2,0-3.8,0-4.1-0.1l-0.1,0.1c0.7,1,1,2.5,1,5
				V424c0,2.3-0.2,3.7-0.7,4.4l0.1,0.1c0.4-0.1,1.8-0.1,3.9-0.1h0.2c1.9,0,3.4,0,3.8,0.1l0.1-0.1c-0.5-0.8-0.7-2.1-0.7-4.4v-30.7
				l9.4,28.9h2.1l9.4-29v30.3c0,2.5-0.3,4-1.1,5l0.1,0.1c0.4-0.1,2.1-0.1,4-0.1h1.1c2.5,0,3.6,0,4,0.1l0.1-0.1c-0.7-1-1-2.5-1-5
				v-33.7C261.9,387.3,262.2,385.9,262.9,384.8L262.9,384.8z"/>
			<path class="st0" d="M291.6,312.4c-31.5,0-50.2-15.5-50.2-39c0-24,16.5-42.2,49.6-42.2c18.1,0,34.7,3.2,48,14.4l-3.2-43.2h-50.2
				c-53.4,0-89.6,29.3-89.6,70.4v1.1c0,40.6,33.6,69.9,83.8,69.9c17.1,0,29.3-1.6,53.9-4.8l9.6-48
				C331.1,306,311.3,312.4,291.6,312.4L291.6,312.4z"/>
			<path class="st0" d="M212.6,349.3c-9.6-8.5-17.2-25-21.9-35.8l-37.4-85.9c-3.7-8.5-4.3-17.6-1.6-25.1H90.4
				c2.7,5.3,3,13.8-1.1,25.1L49.9,337c-13.3,36.8-17.1,44.8-21.9,53.4c18.7-6.4,39.5-12.3,58.7-16.5c-1.6-3.2-2.7-8.5-2.7-13.3
				c0-13.9,9.6-25.1,26.1-25.1c8.7,0,15.4,3.6,24.7,3.6c5.2,0,11.3-1.1,19-4.6c2.1,6.3,3.3,11.1,3.3,14.3c0,3.7-0.5,6.4-2.1,10.1
				C174.2,355.1,193.4,351.9,212.6,349.3L212.6,349.3z M134.8,310.2c-6.6,0.1-13-4.2-22.6-4.1c-3.7,0-7.9,0.8-12.7,2.6L120,249
				l23.8,59C140.4,309.6,137.1,310.2,134.8,310.2z"/>
			<path class="st0" d="M203.6,395.8c0-2.9,2.1-4.8,5.1-4.8c2.6,0,5.4,1.3,6.8,4l0.1,0l0.6-8.7c-2.3-1.3-5-2-8.1-2
				c-6.9,0-11.9,5-11.9,11.6c0,13.2,14.7,12.5,14.7,20.3c0,3.4-2.3,5.7-5.5,5.7c-3.4,0-6.5-2-8.2-5.2l-0.1,0l-1.2,8.4
				c2.6,2.6,5.8,4,10.1,4c7.3,0,12.3-5.4,12.3-13C218.3,402.6,203.6,402.8,203.6,395.8L203.6,395.8z"/>
			<path class="st0" d="M520.9,389.8c0-2.4,0.3-3.9,1-4.9l0-0.1c-0.4,0.1-2.1,0.1-4,0.1h-1.2c-1.9,0-3.6,0-4-0.1l-0.1,0.1
				c0.7,1,1,2.5,1,4.9v11.9h-9.2v-11.9c0-2.4,0.3-3.9,1-4.9l-0.1-0.1c-0.4,0.1-2.1,0.1-4,0.1h-1.2c-1.9,0-3.6,0-4-0.1l-0.1,0.1
				c0.7,1,1,2.5,1,4.9v33.7c0,2.4-0.3,3.9-1,5l0.1,0.1c0.4-0.1,1.6-0.1,4-0.1h1.2c1.9,0,3.6,0,4,0.1l0.1-0.1c-0.7-1-1-2.5-1-5v-15.2
				h9.2v15.2c0,2.4-0.3,3.9-1,5l0.1,0.1c0.4-0.1,2.1-0.1,4-0.1h1.2c2.5,0,3.6,0,4,0.1l0.1-0.1c-0.7-1-1-2.5-1-5L520.9,389.8
				L520.9,389.8z"/>
			<path class="st0" d="M473.3,395.8c0-2.9,2.1-4.7,5.1-4.7c2.6,0,5.4,1.3,6.8,4l0.2,0l0.6-8.7c-2.3-1.4-5-2-8.1-2
				c-6.9,0-11.8,5-11.8,11.6c0,13.2,14.7,12.5,14.7,20.3c0,3.4-2.3,5.7-5.5,5.7c-3.4,0-6.6-2-8.3-5.2h-0.1l-1.2,8.4
				c2.6,2.6,5.8,4,10.1,4c7.3,0,12.3-5.4,12.3-13C487.9,402.7,473.3,402.8,473.3,395.8L473.3,395.8z"/>
			<path class="st0" d="M528.5,202.5h-45.4l-41.8,56.8l-45.7-56.8h-43.8c4.8,6.4,7.5,14.9,7.5,27.2v82.7c0,11.7-2.7,20.8-7.5,26.7
				c18.1-0.5,35.2,0,51.8,1.1c-3.2-6.4-5.3-15.5-5.3-26.1V265l41.6,50.7l40.6-53.4v57.1c0,17.1-1.6,23-4.8,26.7
				c17.1,1.1,35.8,4.3,52.8,8c-5.3-9.1-8-22.4-8-40v-78.4C520.5,219.1,522.7,210,528.5,202.5L528.5,202.5z"/>
			<path class="st0" d="M357.2,420.9h-8.7v-12.5h6.1c2.5,0,3.9,0.1,4.2,0.4l0.1-0.1c-0.1-0.4-0.2-1.6-0.2-3.1l-0.1-3.2
				c0-0.4-0.2-0.6-0.6-0.6h-9.5V392h7.9c2.5,0,4.4,0.1,4.8,0.3l0.1-0.1c-0.4-1.2-0.7-2.6-0.8-4.5l-0.2-2.2c0-0.4-0.2-0.6-0.6-0.6
				h-15.4c-1.9,0-3.6,0-4-0.1l0,0.1c0.7,1,1,2.5,1,4.9v33.7c0,2.4-0.3,3.9-1,5l0.1,0.1c0.4-0.1,2.1-0.1,4-0.1h16.2
				c0.4,0,0.6-0.2,0.6-0.6l0.2-2.3c0.2-2,0.4-3.4,0.8-4.8l-0.1-0.1C361.7,420.8,359.7,420.9,357.2,420.9L357.2,420.9z"/>
			<path class="st0" d="M653.9,348.7c-15.5,0-29.9-2.1-67.2-16.5V297c18.1,2.1,39,6.9,55.5,13.3v-38.4c-14.4,1.1-32,0.5-55.5-2.7
				v-33.1c44.3,1.1,68.8,5.9,80,17.1l-8.5-50.7H538.7c6.4,7.5,8,16.5,8,33.6v91.8c0,8.5-1.6,18.7-8,28.3c51.8,8,79,35.8,125.4,34.1
				l6.9-47.5C666.7,346.1,661.4,348.7,653.9,348.7L653.9,348.7z"/>
			<path class="st0" d="M456.7,389.8c0-2.4,0.3-3.9,1-4.9l0-0.1c-0.4,0.1-2.1,0.1-4,0.1h-1.2c-1.9,0-3.6,0-4-0.1l-0.1,0.1
				c0.7,1,1,2.5,1,4.9v33.7c0,2.4-0.3,3.9-1,5l0.1,0.1c0.4-0.1,2.1-0.1,4-0.1h1.2c1.9,0,3.6,0,4,0.1l0.1-0.1c-0.7-1-1-2.5-1-5
				L456.7,389.8L456.7,389.8z"/>
			<path class="st0" d="M380.6,384.9h-7.1c-2.5,0-3.6,0-4-0.1l0,0.1c0.7,1,1,2.5,1,4.9v33.7c0,2.4-0.3,3.9-1,5l0.1,0.1
				c0.4-0.1,1.6-0.1,4-0.1h7.1c9,0,14-8,14-22.3C394.6,391.8,390,384.9,380.6,384.9L380.6,384.9z M380.6,421.2h-2.8V392h2.8
				c4.3,0,6.4,4.7,6.4,14.2C387,416.3,384.9,421.2,380.6,421.2L380.6,421.2z"/>
			<path class="st0" d="M440.4,385.5c0-0.4-0.2-0.6-0.6-0.6h-15.1c-1.9,0-3.6,0-4-0.1l-0.1,0.1c0.7,1,1,2.5,1,4.9v33.7
				c0,2.4-0.3,3.9-1,5l0.1,0.1c0.4-0.1,2.1-0.1,4-0.1h1.2c1.9,0,3.6,0,4,0.1l0.1-0.1c-0.7-1.2-1-2.6-1-5V409h5.8
				c2.4,0,3.9,0.1,4.2,0.4l0.1-0.1c-0.1-0.4-0.2-1-0.2-3.1l-0.1-3.2c0-0.4-0.2-0.6-0.6-0.6h-9.3V392h7.6c2.5,0,4.4,0.1,4.8,0.3
				l0.1-0.1c-0.3-1-0.6-2.5-0.8-5.1L440.4,385.5L440.4,385.5z"/>
			<polygon class="st0" points="612,405 617,405 617,420 619.5,420 619.5,405 624.5,405 624.5,402.5 612,402.5 			"/>
			<path class="st0" d="M460.7,118.3c3.3-5.5,6.2-13.2,0.6-16.4c-4.5-2.6-9.3,0.4-12,4.9c-2.2,3.7-3.2,8.8,0.5,11.1
				c1.7,1.1,3.7,1,5.6-0.2c-3.2,4.8-6.2,6.7-8.9,5.1c-1.6-0.9-2-2.2-2.2-3.6l-0.1-0.1l-3.3,4.7c0.6,1.4,1.7,2.5,3.1,3.3
				C451,131.2,457,124.6,460.7,118.3z M453.5,114.4c-1.9-1.1-1.1-3.6,0-5.4c1.2-2,3.1-3.6,4.9-2.7c1.5,0.8,1.5,2.8,0,5.5
				C457,114.1,455,115.3,453.5,114.4L453.5,114.4z"/>
			<polygon class="st0" points="419,479.7 419,467.8 425.3,450 420.6,450 416.7,462.2 413,450 407.8,450 414,467.7 414,479.7 			"/>
			<polygon class="st0" points="641.5,402.5 636,413.9 630.5,402.5 628,402.5 628,420 630.5,420 630.5,408.4 635.9,420 636.1,420 
				641.5,408.4 641.5,420 644,420 644,402.5 			"/>
			<polygon class="st0" points="392.4,450 392.3,479.7 405,479.7 405.5,474.8 397.2,474.8 397.2,450 			"/>
			<path class="st0" d="M463.9,140.1c4.1,3.2,9.6,0.9,15.9-7.1c6.3-8,7.5-13.5,3.3-16.7c-4.2-3.3-9.5-1-15.8,7
				C461.1,131.3,459.8,136.9,463.9,140.1L463.9,140.1z M471.5,126.5c4.4-5.6,6.9-7.4,8.3-6.3c1.5,1.2,0.3,4.1-4.1,9.6
				c-4.3,5.5-6.8,7.4-8.3,6.2C465.9,134.9,467.1,132,471.5,126.5L471.5,126.5z"/>
			<path class="st0" d="M359.1,21.6c107.3,0,206,67.1,244.2,169.5h14.9C580.6,84.2,478.8,7.6,359.1,7.6S137.7,84.2,100,191.1l14.9,0
				C153.7,88.7,251.8,21.6,359.1,21.6z"/>
			<path class="st0" d="M502,142.2l4.4-3.7c-0.2-1.4-0.9-2.8-2.2-4c-5.3-5.3-13.1-0.9-18.5,4.4c-4.6,4.5-9.2,11.2-4.7,15.8
				c3.7,3.8,8.9,1.9,12.7-1.9c3.1-3.1,5.4-7.8,2.4-10.9c-1.5-1.5-3.3-2-5.4-1.2c4.3-3.8,7.7-4.7,9.9-2.5
				C501.7,139.3,502,140.5,502,142.2L502,142.2L502,142.2z M491.7,144.4c1.3,1.2,0.8,3-1.2,5.1c-2.2,2.4-4.1,2.9-5.5,1.7
				c-1.3-1.1-0.8-3.2,1.5-5.6C488.5,143.6,490.5,143.2,491.7,144.4L491.7,144.4z"/>
			<path class="st0" d="M427.3,118.8c1.2,0.3,3.1,1.1,4.6,2.1l0.1,0L445.6,94l-3.3-1.6l-8.9,3.7l-0.1,0.1l4.5,2.7L427.3,118.8
				C427.3,118.7,427.3,118.8,427.3,118.8z"/>
			<polygon class="st0" points="437.6,458.8 445.5,479.7 449.8,479.7 449.8,450 445.4,450 445.4,466.6 439.2,450 433.1,450 
				433.1,479.7 437.6,479.7 			"/>
			<path class="st0" d="M298.2,468.6h2c0.3,0,0.6,0,0.7,0l3.9,11.1l5.4,0l-4.6-12.6c2.7-1.7,4-5,4-8.1c0-5.5-3.8-9.1-9.4-9.1l-7.2,0
				v29.8h5.1V468.6z M298.2,454.8h2.1c2.8,0,4.2,1.5,4.2,4.4c0,2.8-1.4,4.6-4.2,4.6h-2.1V454.8L298.2,454.8z"/>
			<path class="st0" d="M257.2,138.5c1.1-1,2.2-1.8,3.5-2.5v-0.1l-18.6-23.7l-0.1,0c-1.2,1.3-2,1.8-3.7,2.8l0,0.1l10.3,13l-15.3-9.3
				l-0.1,0c-1.2,1.4-2.9,2.7-4.8,3.9l0,0.1l18.8,23.5l0.1,0c0.9-1.2,2.1-2,3.5-2.8l0-0.1l-13.1-16.5L257.2,138.5L257.2,138.5
				L257.2,138.5z"/>
			<path class="st0" d="M217.9,165.6L217.9,165.6l3.4,3.8c2.7-0.3,5.1-1.6,6.7-3.8c2.8-3.7,2.2-8.4-1.3-11.6c-5.1-4.7-10.7-1-14.4-1
				c-3.4,0-5-3-3.1-5.5c0.9-1.1,2.3-1.8,4.2-2l0.1-0.1l-3.9-3.9c-1.5,0.7-3,1.8-4.2,3.3c-1.3,1.6-2,3.3-2,5.3c0,4.1,2.9,7.8,7.8,8.2
				c4.7,0.3,9-2.7,11.7-0.5c1.3,1.1,2.3,3.4,0.7,5.4C222.5,164.5,220.6,165.4,217.9,165.6L217.9,165.6z"/>
			<path class="st0" d="M237.4,155.2c1.2-1.6,2.2-2.6,3.6-3.4l0-0.1l-20.4-22.1l-0.1,0c-0.9,1.2-2.3,2.3-3.7,3.5v0.1L237.4,155.2
				L237.4,155.2L237.4,155.2z"/>
			<path class="st0" d="M273.7,127.9c1.7-1,2.9-2.7,3.6-4.5l-3.6-4.3l-0.1,0c-0.2,2-0.7,3.3-2.2,4.1c-2.6,1.5-6.2-0.2-9.7-5.9
				c-3.3-5.4-3.3-10.2-0.5-11.9c1.2-0.7,2.8-0.8,4.3-0.3l0.1-0.1l-2.6-5c-1.5-0.1-3,0.3-4.6,1.3c-5.8,3.6-5.7,11-1.2,18.5
				C261.1,126.2,267.8,131.5,273.7,127.9L273.7,127.9z"/>
			<path class="st0" d="M296.1,117l-1.9-4.9l-0.1,0c-0.6,0.5-1.7,1.1-2.6,1.5l-5.4,2.3l-3.5-7.9l6.6-2.9l0-0.1l-2.1-4.3l-0.1,0
				l-6.4,2.9l-2.8-6.2l4.9-2.3c1.5-0.7,2.3-0.9,2.7-1l0-0.1c-0.2-0.3-0.5-1-2.2-4.2l-0.3-0.1l-9.5,4.3c-1.4,0.6-2.1,0.9-2.3,1l0,0.1
				l12.4,27.3l0.1,0c3.9-2.3,9.3-4.4,12.4-5.4L296.1,117L296.1,117z"/>
			<path class="st0" d="M502,500.5c-42.9,28.1-92.3,42.9-142.9,42.9c-106.3,0-204.2-66.6-243.9-166l-12.4,4.1
				c38.9,100.7,137.5,175.8,256.3,175.8c112.9,0,209.8-68.1,252.1-165.5l-12.2-4.9C578.3,433.2,544.8,472.5,502,500.5L502,500.5z"/>
			<path class="st0" d="M350.6,449.5c-5.8,0-9,5.5-9,15.3s3.2,15.3,9,15.3s9-5.5,9-15.3S356.4,449.5,350.6,449.5z M350.6,474.9
				c-2.4,0-3.8-3.6-3.8-10c0-6.5,1.4-10,3.8-10c2.5,0,3.8,3.6,3.8,10C354.5,471.3,353.1,474.9,350.6,474.9z"/>
			<path class="st0" d="M316.8,464.9c0,9.8,3.2,15.3,9,15.3c5.8,0,9-5.5,9-15.3s-3.2-15.3-9-15.3C320,449.5,316.8,455,316.8,464.9z
				 M329.6,464.9c0,6.4-1.4,10-3.8,10c-2.4,0-3.8-3.6-3.8-10c0-6.5,1.4-10,3.8-10C328.2,454.8,329.6,458.4,329.6,464.9z"/>
			<polygon class="st0" points="367.3,450 367.3,479.7 372.3,479.7 372.3,470.1 374.6,466.3 379.2,479.7 384.6,479.7 377.8,460.7 
				384,450 378.6,450 372.3,462.1 372.3,450 			"/>
			<path class="st0" d="M285.3,471c0-3.1-1.4-6-4.2-7.2c2.4-1.2,3.4-3.8,3.4-6.4c0-4.9-3.3-7.4-8.2-7.4l-7.6,0v29.8h7.9
				C281.8,479.7,285.3,476.2,285.3,471L285.3,471z M273.9,454.6h2.2c2.2,0,3.3,1.2,3.3,3.5c0,2.2-1.1,3.8-3.3,3.8h-2.2V454.6z
				 M273.9,475v-8.6h2.4c2.5,0,3.9,1.5,3.9,4.1c0,2.8-1.5,4.5-3.9,4.5L273.9,475L273.9,475z"/>
		</g>
		<path class="st0" d="M351.5,131l-2,5.9c-0.5,1.6-0.7,3-0.4,4.3l0.4,1.6h-19.2c2.6-3.1,4.7-6.5,6.3-10.2l13.7-32.5
			c0.6-1.5,1-4.8,0.4-6.3l-0.8-2h18.4l-0.8,2c-0.7,1.8-0.6,3.9,0.4,6.3l13.7,32.5c1.5,3.7,3.7,7,6.3,10.2h-19.2l0.4-1.6
			c0.3-1.3,0.1-2.7-0.4-4.3l-2-5.9H351.5L351.5,131z M364.4,124l-5.5-14.1l-5.5,14.1H364.4z M339.3,147.7c0,0,0.3,1.4,0.9,3.5
			c3.1,10,8,18.4,13,22.5c2.4,2,4.2,2.9,5.9,2.9s3.6-0.9,5.9-2.9c5.1-4.1,9.9-12.5,13-22.5c0.6-2.2,0.9-3.5,0.9-3.5
			s-8.4,3.5-19.9,3.5C347.7,151.2,339.3,147.7,339.3,147.7 M334.9,123.2l6.2-15.3c-4-0.5-7.8-1.5-11.5-3.2L334.9,123.2z
			 M377.2,107.9l6.2,15.3l5.4-18.4C385,106.4,381.1,107.4,377.2,107.9 M364.2,67.8l21.5-7.7l-15.9,25.8c0,0-4.3-1.4-10.7-1.4
			s-10.7,1.4-10.7,1.4L332.6,60l21.6,7.7c1.6,0.6,3.3,1,5,1C360.9,68.7,362.6,68.3,364.2,67.8"/>
	</g>
</g>
</svg>
